<svg width="380" height="254" viewBox="0 0 380 254" xmlns="http://www.w3.org/2000/svg">
  <rect width="380" height="254" fill="#1a1b27" rx="8"/>
  <rect x="1" y="1" width="378" height="252" fill="none" stroke="#3d59a1" stroke-width="1" rx="7"/>
  <text x="190.0" y="24" text-anchor="middle" fill="#7aa2f7" font-family="Segoe UI, Ubuntu, sans-serif" font-size="13" font-weight="600">Research Areas</text>
  <rect x="135" y="38" width="205" height="22" fill="#24283b" rx="3"/>
  <rect x="135" y="38" width="205.0" height="22" fill="#7aa2f7" rx="3"/>
  <text x="129" y="53.0" text-anchor="end" fill="#a9b1d6" font-family="Segoe UI, Ubuntu, sans-serif" font-size="10">Autonomous Vehicles</text>
  <text x="346" y="53.0" fill="#a9b1d6" font-family="Segoe UI, Ubuntu, sans-serif" font-size="10">15</text>
  <rect x="135" y="66" width="205" height="22" fill="#24283b" rx="3"/>
  <rect x="135" y="66" width="136.66666666666666" height="22" fill="#7aa2f7" rx="3"/>
  <text x="129" y="81.0" text-anchor="end" fill="#a9b1d6" font-family="Segoe UI, Ubuntu, sans-serif" font-size="10">Perception &amp; Sensing</text>
  <text x="346" y="81.0" fill="#a9b1d6" font-family="Segoe UI, Ubuntu, sans-serif" font-size="10">10</text>
  <rect x="135" y="94" width="205" height="22" fill="#24283b" rx="3"/>
  <rect x="135" y="94" width="136.66666666666666" height="22" fill="#7aa2f7" rx="3"/>
  <text x="129" y="109.0" text-anchor="end" fill="#a9b1d6" font-family="Segoe UI, Ubuntu, sans-serif" font-size="10">Weather &amp; Environment</text>
  <text x="346" y="109.0" fill="#a9b1d6" font-family="Segoe UI, Ubuntu, sans-serif" font-size="10">10</text>
  <rect x="135" y="122" width="205" height="22" fill="#24283b" rx="3"/>
  <rect x="135" y="122" width="68.33333333333333" height="22" fill="#7aa2f7" rx="3"/>
  <text x="129" y="137.0" text-anchor="end" fill="#a9b1d6" font-family="Segoe UI, Ubuntu, sans-serif" font-size="10">Simulation &amp; Testing</text>
  <text x="346" y="137.0" fill="#a9b1d6" font-family="Segoe UI, Ubuntu, sans-serif" font-size="10">5</text>
  <rect x="135" y="150" width="205" height="22" fill="#24283b" rx="3"/>
  <rect x="135" y="150" width="54.666666666666664" height="22" fill="#7aa2f7" rx="3"/>
  <text x="129" y="165.0" text-anchor="end" fill="#a9b1d6" font-family="Segoe UI, Ubuntu, sans-serif" font-size="10">Electric &amp; Energy</text>
  <text x="346" y="165.0" fill="#a9b1d6" font-family="Segoe UI, Ubuntu, sans-serif" font-size="10">4</text>
  <rect x="135" y="178" width="205" height="22" fill="#24283b" rx="3"/>
  <rect x="135" y="178" width="41.0" height="22" fill="#7aa2f7" rx="3"/>
  <text x="129" y="193.0" text-anchor="end" fill="#a9b1d6" font-family="Segoe UI, Ubuntu, sans-serif" font-size="10">Computer Vision</text>
  <text x="346" y="193.0" fill="#a9b1d6" font-family="Segoe UI, Ubuntu, sans-serif" font-size="10">3</text>
  <rect x="135" y="206" width="205" height="22" fill="#24283b" rx="3"/>
  <rect x="135" y="206" width="27.333333333333332" height="22" fill="#7aa2f7" rx="3"/>
  <text x="129" y="221.0" text-anchor="end" fill="#a9b1d6" font-family="Segoe UI, Ubuntu, sans-serif" font-size="10">Control Systems</text>
  <text x="346" y="221.0" fill="#a9b1d6" font-family="Segoe UI, Ubuntu, sans-serif" font-size="10">2</text>
</svg>