<svg width="321" height="354" viewBox="0 0 321 354" xmlns="http://www.w3.org/2000/svg" lang="en" xml:lang="en"><rect x="2" y="2" stroke-width="4" rx="6" width="317" height="350" stroke="#3d59a1" fill="#1a1b27"/><g font-weight="600" font-size="110pt" font-family="Verdana,Geneva,DejaVu Sans,sans-serif" text-rendering="geometricPrecision"><text x="768" y="301" lengthAdjust="spacingAndGlyphs" textLength="1074" transform="scale(0.123)" fill="#7aa2f7">Bibliometrics</text><g fill="#a9b1d6"><g transform="translate(15, 60)"><g transform="scale(0.095)"><text lengthAdjust="spacingAndGlyphs" textLength="1170" x="0" y="132">Total citations</text><text lengthAdjust="spacingAndGlyphs" textLength="315" x="2748" y="132">197</text></g></g><g transform="translate(15, 81)"><g transform="scale(0.095)"><text lengthAdjust="spacingAndGlyphs" textLength="1524" x="0" y="132">Five-year citations</text><text lengthAdjust="spacingAndGlyphs" textLength="315" x="2748" y="132">196</text></g></g><g transform="translate(15, 102)"><g transform="scale(0.095)"><text lengthAdjust="spacingAndGlyphs" textLength="1395" x="0" y="132">Most-cited paper</text><text lengthAdjust="spacingAndGlyphs" textLength="210" x="2853" y="132">59</text></g></g><g transform="translate(15, 123)"><g transform="scale(0.095)"><text lengthAdjust="spacingAndGlyphs" textLength="621" x="0" y="132">h-index</text><text lengthAdjust="spacingAndGlyphs" textLength="105" x="2958" y="132">8</text></g></g><g transform="translate(15, 144)"><g transform="scale(0.095)"><text lengthAdjust="spacingAndGlyphs" textLength="621" x="0" y="132">g-index</text><text lengthAdjust="spacingAndGlyphs" textLength="210" x="2853" y="132">14</text></g></g><g transform="translate(15, 165)"><g transform="scale(0.095)"><text lengthAdjust="spacingAndGlyphs" textLength="772" x="0" y="132">i10-index</text><text lengthAdjust="spacingAndGlyphs" textLength="105" x="2958" y="132">4</text></g></g><g transform="translate(15, 186)"><g transform="scale(0.095)"><text lengthAdjust="spacingAndGlyphs" textLength="651" x="0" y="132">w-index</text><text lengthAdjust="spacingAndGlyphs" textLength="105" x="2958" y="132">2</text></g></g><g transform="translate(15, 207)"><g transform="scale(0.095)"><text lengthAdjust="spacingAndGlyphs" textLength="618" x="0" y="132">o-index</text><text lengthAdjust="spacingAndGlyphs" textLength="210" x="2853" y="132">22</text></g></g><g transform="translate(15, 228)"><g transform="scale(0.095)"><text lengthAdjust="spacingAndGlyphs" textLength="784" x="0" y="132">h-median</text><text lengthAdjust="spacingAndGlyphs" textLength="210" x="2853" y="132">13</text></g></g><g transform="translate(15, 249)"><g transform="scale(0.095)"><text lengthAdjust="spacingAndGlyphs" textLength="618" x="0" y="132">e-index</text><text lengthAdjust="spacingAndGlyphs" textLength="472" x="2591" y="132">10.77</text></g></g><g transform="translate(15, 270)"><g transform="scale(0.095)"><text lengthAdjust="spacingAndGlyphs" textLength="584" x="0" y="132">r-index</text><text lengthAdjust="spacingAndGlyphs" textLength="472" x="2591" y="132">13.42</text></g></g><g transform="translate(15, 291)"><g transform="scale(0.095)"><text lengthAdjust="spacingAndGlyphs" textLength="616" x="0" y="132">a-index</text><text lengthAdjust="spacingAndGlyphs" textLength="472" x="2591" y="132">22.50</text></g></g><g transform="translate(15, 333)"><g transform="scale(0.082)"><text lengthAdjust="spacingAndGlyphs" textLength="2543" x="0" y="130">Last updated: 08 January 2026</text></g></g><svg x="15" y="15" width="32" height="32" viewBox="0 0 512 512"><path fill="#4285f4" d="M256 411.12L0 202.667 256 0z"/><path fill="#356ac3" d="M256 411.12l256-208.453L256 0z"/><circle fill="#a0c3ff" cx="256" cy="362.667" r="149.333"/><path fill="#76a7fa" d="M121.037 298.667c23.968-50.453 75.392-85.334 134.963-85.334s110.995 34.881 134.963 85.334H121.037z"/></svg><svg x="274" y="15" width="32" height="32" viewBox="0 0 512 512"><path fill="#4285f4" d="M256 411.12L0 202.667 256 0z"/><path fill="#356ac3" d="M256 411.12l256-208.453L256 0z"/><circle fill="#a0c3ff" cx="256" cy="362.667" r="149.333"/><path fill="#76a7fa" d="M121.037 298.667c23.968-50.453 75.392-85.334 134.963-85.334s110.995 34.881 134.963 85.334H121.037z"/></svg></g></g></svg>